<?xml version="1.0" standalone="no"?>
<svg viewBox="0 0 717 548" xmlns="http://www.w3.org/2000/svg" width="717" height="548">
    <path d="M 305.7399 265.3765 C 254.6007 258.9194 178.2336 214.9541 166.0405 139.4995 C 157.4863 86.5647 190.0554 40.2708 240.0164 38.4575 C 357.158 34.2058 380.1849 181.8711 307.0544 264.8113 L 305.7399 265.3765 ZM 397.8998 309.5547 L 397.9647 309.5698 C 456.9973 323.3545 508.9285 332.5793 528.922 405.6096 C 548.0522 475.4871 503.9302 519.657 458.9448 522.6582 C 366.3818 528.8335 325.1898 370.7026 397.5874 309.8152 L 397.8998 309.5547 ZM 499.9614 241.6067 C 457.0524 156.1426 488.9454 19.6323 577.4813 24.2085 C 709.1339 31.0129 672.875 248.5447 546.3978 261.7305 C 534.3123 262.9905 522.306 260.6365 510.4919 259.3362 C 510.0662 258.7271 502.9691 247.2454 499.9614 241.6067 ZM 446.53 263.7 C 429.9019 266.0009 409.5526 270.4376 387.953 281.6582 L 376.8567 280.2178 L 335.1503 271.6392 L 335.0752 271.374 C 413.2334 170.4155 371.3728 0.447 231.0193 16.4485 C 152.045 25.4521 126.0536 95.4812 142.0483 153.5054 C 161.1005 229.7703 220.1656 265.3955 284.5468 285.4197 L 284.6868 285.6599 C 232.2755 325.1802 142.2372 333.2793 16.8132 279.5264 C 2.11 273.2253 -7.3212 297.2649 7.3683 303.5984 C 155.4594 367.4482 258.2991 345.9937 315.8566 293.3232 L 316.5214 293.0229 L 364.1658 302.272 C 293.9283 383.3745 345.6456 556.5862 465.9425 547.6685 C 533.9203 542.6665 574.5684 475.3076 555.9131 405.6096 C 536.8693 334.4597 501.6995 310.5115 430.954 292.0027 L 430.954 291.8074 C 438.706 289.3967 446.5758 287.3902 455.555 286.475 C 456.9503 286.3328 458.3722 286.2172 459.825 286.13 L 461.09 286.02 C 473.1537 284.9852 491.3376 283.2429 496.9324 283.4292 C 497.7959 284.6543 498.6512 285.8486 499.5016 287.0154 C 554.5063 374.0361 674.1528 414.6899 716.2721 279.425 C 721.4272 262.8696 697.6903 255.999 692.5352 272.5547 C 665.7357 358.6206 593.0956 358.2617 540.2233 300.8062 C 537.0992 296.1555 533.0308 290.9604 527.9222 285.3098 L 551.1647 285.8101 C 697.7978 277.3706 747.6458 8.8694 578.5914 0.1506 C 473.7524 -5.2563 432.5811 136.123 470.631 236.5796 L 470.5623 236.7146 C 470.5623 236.7146 476.3467 248.8416 482.4371 260.2996 C 480.7468 260.2129 462.4419 261.854 450.532 263.0649 C 449.3942 263.1806 447.9914 263.4176 446.53 263.7 Z" fill="#6f695f"/>
</svg>
