<?xml version="1.0" standalone="no"?>
<svg viewBox="0 0 644 540" xmlns="http://www.w3.org/2000/svg" width="644" height="540">
    <path d="M 85.5006 405.4531 C 77 407 11 514 12 524 C 12.5179 529.179 632 529.303 632 524 C 632 513 567.9985 409.9063 558.4993 405.4531 C 549 401 94.0012 403.9063 85.5006 405.4531 ZM 201.0808 215.0286 C 188.0911 226.3463 104.4197 350.4243 109.2098 361.2122 C 111.6981 366.8159 537.092 367.5613 534.79 361.2122 C 535 350 450.4202 213.9034 439 212 C 427 210 208 209 201.0808 215.0286 ZM 325 12 C 316 13 216 167 224.7902 168.7878 C 263.3104 176.6225 415.4408 175.6777 419 165 C 422 156 334 11 325 12 Z" stroke="#6f695f" stroke-width="23" fill="none"/>
</svg>
