<?xml version="1.0" standalone="no"?>
<svg viewBox="0 0 1140 637" xmlns="http://www.w3.org/2000/svg" width="1140" height="637">
    <path d="M 864 425 C 849 428 841 439 854 435 C 867 431 886 423 884 421 C 882 419 879 422 864 425 ZM 897 362 C 917 382 914 411 926 405 C 938 399 928 383 923 376 C 918 369 880.6753 345.6753 897 362 ZM 461 136 C 447 139 447 147 463 149 C 479 151 468 145 469 139 C 470 133 475 133 461 136 ZM 507 192 C 504.131 185.1143 503.2355 176.9426 502.995 173.1001 L 503 174 C 503 192 482 207 490 206 C 498 205 509.4628 197.9106 507 192 ZM 926 436 C 901 442 905 437 895 456 C 885 475 872 462 870 481 C 868 500 868 505 876 514 C 884 523 891 517 911 511 C 931 505 932 504 944 521 C 956 538 966 560 978 535 C 990 510 1005 499 991 484 C 977 469 968 452 958 445 C 948 438 951 430 926 436 ZM 982 246 C 965 254 966 256 947 274 C 928 292 919 292 918 305 C 917 318 938 311 951 299 C 964 287 977 270 978 266 C 979 262 999 238 982 246 ZM 724 21 C 703.4077 16.8816 693 -1 690 41 C 687 83 701 91 685 107 C 669 123 679 144 647 127 C 615 110 629 83 597 91 C 565 99 556 101 548 129 C 540 157 533 186 559 176 C 585 166 610 138 607 166 C 604 194 603 209 576 208 C 549 207 547 203 530 220 C 513 237 481 234 515 238 C 549 242 550 256 565 247 C 580 238 589 240 608 237 C 627 234 652 235 646 252 C 640 269 663 296 630 297 C 597 298 575 284 555 275 C 535 266 529 253 512 257 C 495 261 510 246 487 291 C 464 336 445 367 471 378 C 497 389 523 391 539 394 C 555 397 555 405 560 443 C 565 481 562 499 579 509 C 596 519 588 541 613 506 C 638 471 648 469 645 441 C 642 413 643 398 655 385 C 667 372 677 368 662 363 C 647 358 685 345 691 338 C 697 331 677 322 675 310 C 673 298 681 286 704 308 C 727 330 725 344 737 369 C 749 394 765 422 771 415 C 777 408 784 361 790 356 C 796 351 798 324 813 347 C 828 370 800 381 824 388 C 848 395 848 413 848 373 C 848 333 879 308 879 308 C 879 308 874 278 894 272 C 914 266 935 257 944 240 C 953 223 926 202 946 186 C 966 170 975 151 987 165 C 999 179 1000 183 995 200 C 990 217 1008 229 1015 217 C 1022 205 1022 176 1046 168 C 1070 160 1120 161 1106 134 C 1092 107 1052 105 1018 93 C 984 81 974 76 961 74 C 948 72 947 100 928 90 C 909 80 907 78 882 64 C 857 50 875 33 855 22 C 835 11 828 8 805 22 C 782 36 772 60 754 64 C 736 68 732 62 729 83 C 726 104 715 122 714 99 C 713 76 700 66 705 50 C 710 34 744 25 724 21 ZM 33.6667 202 C 33.1984 202.2007 33.4023 202.2265 34.165 202.095 C 33.9171 202.0719 33.7474 202.0404 33.6667 202 ZM 62.8544 194.0906 C 49.1162 198.5476 37.2025 201.5713 34.165 202.095 C 38.0114 202.454 60.8828 200.7111 68.6667 196 C 86.26 185.3521 95.0831 170.5613 108 176 C 127 184 148 176 163 215 C 178 254 160 268 184 300 C 208 332 193 323 232 341 C 271 359 253 357 274 381 C 295 405 281 384 291 427 C 301 470 323 421 320 476 C 317 531 298 548 307 584 C 316 620 334 625 334 625 C 334 625 319 616 338 577 C 357 538 377 494 401 487 C 425 480 442 457 433 440 C 424 423 403 427 381 409 C 359 391 356 382 330 381 C 304 380 306 371 287 361 C 268 351 244 336 250 326 C 256 316 262 291 280 304 C 298 317 307 329 317 329 C 327 329 326 334 318 313 C 310 292 298 270 320 263 C 342 256 354 253 366 243 C 378 233 389 242 378 213 C 367 184 359 142 335 157 C 311 172 326 191 315 209 C 304 227 302 211 283 200 C 264 189 248 180 261 163 C 274 146 303 135 296 122 C 289 109 300 64 273 68 C 246 72 260 105 222 108 C 184 111 168.0698 85.5562 151 100 C 112 133 65 98 65 98 C 65 98 49 102 47 125 C 45 148 33 151 46 160 C 59 169 81 159 75 175 C 68.548 178.355 71.3611 191.3308 62.8544 194.0906 Z" stroke="#6f695f" stroke-width="24" fill="none"/>
</svg>
